<svg xmlns="http://www.w3.org/2000/svg" width="256" height="256"><path fill-opacity=".016" d="M0 128.004v128.004l128.25-.254 128.25-.254.254-127.75L257.008 0H0v128.004m.485.496c0 70.4.119 99.053.265 63.672.146-35.38.146-92.98 0-128C.604 29.153.485 58.1.485 128.5" fill="#1976D2" fill-rule="evenodd"/><path fill-opacity=".307" d="M196.622 72.521c-.835.835-4.518 6.497-8.185 12.583-4.793 7.955-6.972 10.761-7.752 9.981-2.412-2.412-5.454-1.155-8.09 3.343-3.118 5.32-3.245 7.154-.595 8.572 2.548 1.364 2.777 4.54.25 3.478-4.936-2.075-5.898-1.755-8.603 2.862-3.207 5.472-3.254 6.385-.483 9.335 2.029 2.16 2.061 2.419.5 4.143-3.109 3.436-2.097 5.714 3.913 8.809l5.576 2.873 2.825-3.344 2.824-3.344 5.982 3.314c6.889 3.816 7.49 3.618 11.256-3.704l2.369-4.605-2.455-1.861c-1.35-1.024-4.136-2.67-6.193-3.659-3.522-1.693-4.546-3.179-3.152-4.573.335-.335 3.881 1.165 7.878 3.333 6.089 3.303 8.211 3.943 13.075 3.943 13.933 0 23.917-11.192 22.061-24.731-.705-5.145-4.815-12.269-7.078-12.269-.785 0-1.748-.52-2.14-1.155-.473-.763-.271-.88.595-.345.807.499 1.066.416.675-.216-.348-.564-1.996-1.298-3.662-1.631-1.699-.34-2.915-1.165-2.771-1.88.142-.7-.361-1.142-1.118-.981-.757.161-2.007-.608-2.778-1.708-.77-1.1-2.005-1.768-2.744-1.485-.739.284-1.613-.185-1.942-1.042-.328-.856-1.511-1.557-2.629-1.557-1.117 0-2.031-.434-2.031-.965 0-.53-.869-1.43-1.931-1.998-1.448-.775-2.309-.654-3.447.484m2.128 22.931c-2.062 3.527-3.75 6.849-3.75 7.382 0 1.191 6.499 5.133 10.278 6.233 4.069 1.186 8.138-.62 9.947-4.413 2.214-4.643.319-8.682-5.909-12.592-2.649-1.663-5.266-3.024-5.816-3.024-.55 0-2.687 2.886-4.75 6.414m-116.525 9.169c-1.499 2.541-3.175 5.136-3.725 5.767-.55.631-2.096 3.241-3.436 5.8-4.218 8.059-5.412 9.231-7.991 7.851-1.853-.991-2.57-.899-4.156.536-1.054.954-1.917 2.34-1.917 3.08 0 .74-.414 1.345-.921 1.345-.506 0-1.219 1.36-1.584 3.022-.529 2.409-.209 3.389 1.58 4.838 2.686 2.175 1.828 4.694-1.07 3.143-3.325-1.78-4.87-1.089-7.463 3.335-3.118 5.32-3.179 6.995-.328 8.888 2.166 1.438 2.176 1.53.424 4.203-2.304 3.517-1.654 5.012 3.273 7.526 5.26 2.683 6.529 2.584 8.917-.694l1.995-2.739 6.114 3.282c3.363 1.806 6.571 3 7.129 2.655 1.347-.832 5.934-8.139 5.934-9.452 0-.567-2.588-2.667-5.75-4.666-7.211-4.557-6.826-4.165-5.454-5.537 1.173-1.173 4.444-.083 8.204 2.733C84.341 151.291 92.296 154 95.105 154c8.763 0 19.767-8.097 21.933-16.139 2.208-8.203 1.158-13.942-3.778-20.649-2.603-3.537-5.81-5.775-16.76-11.698-3.85-2.082-7.427-4.175-7.95-4.65-1.943-1.767-3.672-.74-6.325 3.757m4.444 20.967c-2.106 3.602-3.611 7.121-3.343 7.82.268.698 3.05 2.483 6.181 3.965 5.645 2.673 5.724 2.681 9.343.911 3.475-1.699 3.65-2.023 3.65-6.784 0-4.943-.063-5.042-5.5-8.719-3.025-2.046-5.725-3.725-6-3.731-.275-.007-2.224 2.936-4.331 6.538" fill="#1976D2" fill-rule="evenodd"/><path fill-opacity=".448" d="M186.556 90.824c-.318 1.003-1.495 2.807-2.615 4.009-1.595 1.712-2.446 1.967-3.923 1.177-2.942-1.575-3.572-1.282-6.385 2.969-3.154 4.766-3.299 6.594-.633 8.021 1.1.589 2 1.681 2 2.428 0 1.78-2.308 2.623-4.091 1.495-2.611-1.653-3.893-.943-6.901 3.827l-2.995 4.75 2.587 2.283c2.458 2.168 2.508 2.404.994 4.714-2.423 3.698-1.961 5.246 2.386 7.99 4.752 3 7.665 3.207 8.491.603 1.345-4.237 3.207-4.505 8.354-1.202 6.846 4.393 8.358 4.126 11.215-1.974l2.383-5.087-2.462-1.866c-1.353-1.027-4.148-2.632-6.211-3.566-3.906-1.769-4.664-3.392-2.445-5.233.979-.812 2.793-.155 7.25 2.627 5.583 3.485 6.437 3.711 14.03 3.711 7.176 0 8.529-.307 12.021-2.727 2.165-1.5 4.714-4.045 5.665-5.655 1.938-3.28 2.2-4.527.766-3.641-.529.327-2.667-.466-4.75-1.764l-3.787-2.359-3.5 2.404c-4.241 2.914-8.42 2.553-14.119-1.218-2.111-1.397-4.298-2.54-4.86-2.54-1.604 0-1.203-2.672 1.012-6.754l2.034-3.746-3.246-2.75c-3.746-3.174-7.421-3.586-8.265-.926M79.312 110.75c-3.205 5.362-6.477 11.016-7.272 12.564-1.107 2.153-1.926 2.666-3.493 2.186-4.295-1.317-5.063-.929-7.537 3.811l-2.51 4.811 2.25 1.849c2.636 2.166 2.808 3.321.75 5.029-1.19.988-1.807.99-2.987.011-2.124-1.763-3.697-.825-6.248 3.723-2.113 3.767-2.14 4.068-.5 5.536 1.194 1.069 4.984 1.781 12.146 2.282 11.325.792 10.623 1.14 8.436-4.173-.703-1.706 2.638-4.633 4.009-3.514.629.514 3.9 2.329 7.268 4.035 16.694 8.452 33.376-.524 33.376-17.959 0-7.38-1.961-11.958-6.895-16.093C105.954 111.369 88.173 101 86.357 101c-.67 0-3.841 4.388-7.045 9.75m9.321 10.5C83.588 129.284 82 132.068 82 132.876c0 .503 2.177 2.312 4.838 4.02 8.88 5.698 17.562 3.042 17.562-5.374 0-3.995-2.008-6.516-7.975-10.013-5.25-3.077-6.007-3.102-7.792-.259" fill="#1976D2" fill-rule="evenodd"/><path fill-opacity=".979" d="M83.462 105.061c-1.423 2.254-4.874 8.112-7.67 13.018-4.761 8.357-6.812 10.316-8.292 7.921-1.2-1.942-3.326-.959-5.351 2.472-1.127 1.91-1.7 3.688-1.274 3.951.426.263 4.791.776 9.7 1.14l8.925.661 5.27-8.112c2.899-4.462 5.702-8.112 6.231-8.112.528 0 3.437 1.585 6.465 3.521 5.507 3.523 8.534 7.577 8.534 11.429 0 1.749.632 2.05 4.3 2.05 2.365 0 4.84-.54 5.5-1.2 2.886-2.886-.243-13.19-5.435-17.897-2.742-2.486-9.416-6.683-19.591-12.322l-4.725-2.618-2.587 4.098m89.205-3.394c-1.381 1.381-.592 4.119 1.333 4.623 2.399.627 2.592 2.975.425 5.142-1.408 1.408-1.804 1.416-3.723.072-1.181-.827-2.454-1.504-2.829-1.504-.376 0-1.916 2.104-3.424 4.676l-2.74 4.677 2.718 2.338 2.718 2.338-2.188 3.541c-2.464 3.987-2.375 4.134 4.824 8.011 3.033 1.634 3.502 1.665 4.273.287.476-.851 1.672-2.526 2.656-3.722l1.79-2.173 5.8 3.513c3.19 1.933 6.22 3.514 6.733 3.514.513 0 2.057-2.218 3.432-4.93l2.498-4.93-3.718-2.32c-2.044-1.276-4.623-2.781-5.731-3.345-2.414-1.228-3.131-4.718-1.285-6.25 1.001-.831 2.491-.375 6.084 1.861 5.573 3.469 13.101 6.206 15.5 5.635 1.146-.272.724-.662-1.313-1.215-1.65-.448-3.225-1.142-3.5-1.544-.275-.401-5-3.543-10.5-6.983-5.5-3.44-11.935-7.542-14.3-9.116-4.79-3.189-4.611-3.118-5.533-2.196" fill="#1976D2" fill-rule="evenodd"/></svg>