<svg xmlns="http://www.w3.org/2000/svg" width="256" height="256"><path fill-opacity=".016" d="M0 128.004v128.004l128.25-.254 128.25-.254.254-127.75L257.008 0H0v128.004m.485.496c0 70.4.119 99.053.265 63.672.146-35.38.146-92.98 0-128C.604 29.153.485 58.1.485 128.5" fill="#1976D2" fill-rule="evenodd"/><path fill-opacity=".103" d="M113.5 34.426C69.774 41.905 36.525 75.173 29.473 118.5c-1.741 10.693-1.858 19.024-.406 28.808 7.982 53.778 56.322 92.095 109.377 86.698 27.028-2.75 49.838-14.668 67.305-35.166 21.296-24.992 28.897-59.541 20.206-91.84-4.976-18.496-18.212-38.489-33.869-51.163-21.66-17.535-52.357-25.898-78.586-21.411m6.948 25.679c-9.462 1.077-21.524 5.017-29.448 9.619-8.005 4.651-21.328 17.821-25.923 25.629-22.983 39.046-6.46 89.824 34.86 107.133 13.119 5.496 31.046 7.069 45.563 3.999 19.926-4.215 39.238-19.009 48.914-37.47 6.677-12.742 8.086-18.842 8.086-35.015 0-16.116-1.06-21.119-7.041-33.22-13.773-27.869-43.916-44.214-75.011-40.675M92.239 96.868 79 103.465v29.304l8.436 9.335 8.436 9.336 3.064 11.135c1.685 6.125 3.064 11.623 3.064 12.218 0 1.152 22.811 16.707 24.5 16.707.55 0 6.639-3.261 13.531-7.246l12.531-7.246 3.822-11.754 3.822-11.754 9.147-9.262 9.147-9.262 1-14.503 1-14.502-13.221-7.359-13.22-7.36-11.956 2.764-11.955 2.763-12.335-3.254-12.336-3.254-13.238 6.597" fill="#1976D2" fill-rule="evenodd"/><path fill-opacity=".356" d="M113 34.631c-21.44 4.135-40.386 13.962-54.897 28.472-21.154 21.155-31.387 49.385-28.951 79.872 1.817 22.735 12.13 44.943 28.51 61.391 8.951 8.988 16.988 14.647 28.632 20.164 15.616 7.397 22.386 8.823 42.206 8.889 19.476.065 27.495-1.533 42.192-8.404 28.461-13.308 47.257-36.149 55.969-68.015 2.812-10.285 2.524-36.706-.523-48-4.63-17.162-12.769-31.425-25.559-44.791-12.047-12.59-27.048-21.673-44.291-26.818-7.577-2.261-10.992-2.665-24.788-2.932-8.8-.171-17.125-.094-18.5.172m6.5 24.928c-1.1.254-4.455.959-7.455 1.569-17.179 3.488-35.383 16.22-45.592 31.887-8.706 13.36-11.96 24.678-11.928 41.485.027 13.952 2.006 21.84 8.778 35 5.76 11.194 19.004 24.432 30.254 30.24 12.317 6.36 21.686 8.638 35.443 8.616 12.635-.02 20.092-1.564 30.63-6.342 20.884-9.469 36.614-28.469 42.046-50.784 2.489-10.225 2.237-26.772-.559-36.73-3.707-13.202-9.352-22.723-19.617-33.085-7.641-7.713-10.435-9.789-18.5-13.744-5.225-2.563-12.2-5.367-15.5-6.232-5.921-1.553-24.114-2.774-28-1.88m-27.25 37.73c-6.737 3.395-12.249 6.407-12.249 6.692.001.286 10.782 7.044 23.959 15.018l23.958 14.5-3.709 2.241c-2.04 1.233-8.988 5.058-15.44 8.501-8.59 4.583-11.735 6.766-11.75 8.151-.01 1.041.85 4.866 1.912 8.5 1.062 3.634 2.432 8.532 3.045 10.883 1.037 3.978 1.914 4.808 12.577 11.91 6.304 4.198 11.647 7.449 11.872 7.223.226-.226.672-7.835.99-16.909.892-25.378 1.759-38.999 2.484-38.999.363 0 7.165 4.054 15.115 9.009l14.456 9.009 9.242-9.259 9.242-9.259L179 120.607c.576-7.642.92-14.02.765-14.175-.155-.155-11.078 5.576-24.273 12.736-13.196 7.16-24.554 13.249-25.24 13.531-.984.405-1.111-3.275-.599-17.396l.648-17.91-12.022-3.196c-6.613-1.759-12.418-3.171-12.901-3.139-.483.032-6.391 2.836-13.128 6.231" fill="#1976D2" fill-rule="evenodd"/><path fill-opacity=".558" d="M109.221 36.023c-38.637 8.394-66.8 35.073-77.023 72.966-2.236 8.285-2.567 11.509-2.567 25.011 0 13.636.32 16.687 2.658 25.372 9.682 35.965 37.109 62.721 73.711 71.91 10.161 2.55 32.722 2.992 42.5.832 42.164-9.316 73.136-42.383 79.433-84.806 5.655-38.1-13.872-78.954-47.237-98.83-15.438-9.196-30.184-13.403-49.196-14.037-10.492-.35-14.79-.045-22.279 1.582M116 59.687c-10.459 1.733-25.307 8.661-34.592 16.141C69.134 85.716 58.624 102.755 55.396 118c-2.209 10.43-1.427 29.03 1.598 38 8.413 24.955 26.149 42.397 51.006 50.158 10.829 3.382 31.128 3.388 42 .014A77.613 77.613 0 0 0 201.172 155c3.374-10.872 3.368-31.171-.014-42-8.306-26.6-29.548-46.526-55.855-52.394-6.637-1.481-22.847-1.989-29.303-.919" fill="#1976D2" fill-rule="evenodd"/></svg>